# xmcd CD database file
#
# Track frame offsets:
#	150
#	14787
#	33625
#
# Disc length: 632 seconds
#
# Revision: 0
# Processed by: cddbd v1.5.1PL0 Copyright (c) Steve Scherf et al.
# Submitted via: CDex 1.51
#
DISCID=23027603
DTITLE=Meja - I'm here saying nothing
DYEAR=1900
DGENRE=Pop
TTITLE0=I'm here saying nothing
TTITLE1=Spirits (radio edit)
TTITLE2=My best friend
EXTD=
EXTT0=
EXTT1=
EXTT2=
PLAYORDER=
